<svg xmlns="http://www.w3.org/2000/svg" xmlns:xlink="http://www.w3.org/1999/xlink" contentStyleType="text/css" data-diagram-type="CLASS" height="693px" preserveAspectRatio="none" style="width:1015px;height:693px;background:#FFFFFF;" version="1.1" viewBox="0 0 1015 693" width="1015px" zoomAndPan="magnify"><defs/><g><!--class User--><g class="entity" data-entity="User" data-source-line="4" data-uid="ent0002" id="entity_User"><rect fill="#F1F1F1" height="107.4844" rx="2.5" ry="2.5" style="stroke:#181818;stroke-width:0.5;" width="128.1699" x="274.5" y="7"/><text fill="#000000" font-family="sans-serif" font-size="14" lengthAdjust="spacing" textLength="31.9102" x="322.6299" y="24.9951">User</text><line style="stroke:#181818;stroke-width:0.5;" x1="275.5" x2="401.6699" y1="33.2969" y2="33.2969"/><ellipse cx="285.5" cy="46.9453" fill="none" rx="3" ry="3" style="stroke:#038048;stroke-width:1;"/><text fill="#000000" font-family="sans-serif" font-size="14" lengthAdjust="spacing" textLength="44.6455" x="294.5" y="50.292">id : int</text><line style="stroke:#181818;stroke-width:1;" x1="275.5" x2="401.6699" y1="57.5938" y2="57.5938"/><text fill="#000000" font-family="sans-serif" font-size="14" lengthAdjust="spacing" textLength="116.1699" x="280.5" y="74.5889">company_id : int</text><text fill="#000000" font-family="sans-serif" font-size="14" lengthAdjust="spacing" textLength="93.5088" x="280.5" y="90.8857">name : string</text><text fill="#000000" font-family="sans-serif" font-size="14" lengthAdjust="spacing" textLength="80.6299" x="280.5" y="107.1826">role : string</text></g><!--class Company--><g class="entity" data-entity="Company" data-source-line="12" data-uid="ent0003" id="entity_Company"><rect fill="#F1F1F1" height="74.8906" rx="2.5" ry="2.5" style="stroke:#181818;stroke-width:0.5;" width="105.5088" x="7" y="328"/><text fill="#000000" font-family="sans-serif" font-size="14" lengthAdjust="spacing" textLength="66.6025" x="26.4531" y="345.9951">Company</text><line style="stroke:#181818;stroke-width:0.5;" x1="8" x2="111.5088" y1="354.2969" y2="354.2969"/><ellipse cx="18" cy="367.9453" fill="none" rx="3" ry="3" style="stroke:#038048;stroke-width:1;"/><text fill="#000000" font-family="sans-serif" font-size="14" lengthAdjust="spacing" textLength="44.6455" x="27" y="371.292">id : int</text><line style="stroke:#181818;stroke-width:1;" x1="8" x2="111.5088" y1="378.5938" y2="378.5938"/><text fill="#000000" font-family="sans-serif" font-size="14" lengthAdjust="spacing" textLength="93.5088" x="13" y="395.5889">name : string</text></g><!--class Lot--><g class="entity" data-entity="Lot" data-source-line="18" data-uid="ent0004" id="entity_Lot"><rect fill="#F1F1F1" height="172.6719" rx="2.5" ry="2.5" style="stroke:#181818;stroke-width:0.5;" width="218.958" x="229" y="279"/><text fill="#000000" font-family="sans-serif" font-size="14" lengthAdjust="spacing" textLength="21.8545" x="327.5518" y="296.9951">Lot</text><line style="stroke:#181818;stroke-width:0.5;" x1="230" x2="446.958" y1="305.2969" y2="305.2969"/><ellipse cx="240" cy="318.9453" fill="none" rx="3" ry="3" style="stroke:#038048;stroke-width:1;"/><text fill="#000000" font-family="sans-serif" font-size="14" lengthAdjust="spacing" textLength="44.6455" x="249" y="322.292">id : int</text><line style="stroke:#181818;stroke-width:1;" x1="230" x2="446.958" y1="329.5938" y2="329.5938"/><text fill="#000000" font-family="sans-serif" font-size="14" lengthAdjust="spacing" textLength="116.1699" x="235" y="346.5889">company_id : int</text><text fill="#000000" font-family="sans-serif" font-size="14" lengthAdjust="spacing" textLength="105.7998" x="235" y="362.8857">product_id : int</text><text fill="#000000" font-family="sans-serif" font-size="14" lengthAdjust="spacing" textLength="103.6123" x="235" y="379.1826">auction_id : int</text><text fill="#000000" font-family="sans-serif" font-size="14" lengthAdjust="spacing" textLength="143.2607" x="235" y="395.4795">start_price : decimal</text><text fill="#000000" font-family="sans-serif" font-size="14" lengthAdjust="spacing" textLength="103.6533" x="235" y="411.7764">price : decimal</text><text fill="#000000" font-family="sans-serif" font-size="14" lengthAdjust="spacing" textLength="206.958" x="235" y="428.0732">auction_start_date : datetime</text><text fill="#000000" font-family="sans-serif" font-size="14" lengthAdjust="spacing" textLength="96.8242" x="235" y="444.3701">status : string</text></g><!--class Product--><g class="entity" data-entity="Product" data-source-line="30" data-uid="ent0005" id="entity_Product"><rect fill="#F1F1F1" height="123.7813" rx="2.5" ry="2.5" style="stroke:#181818;stroke-width:0.5;" width="202.627" x="565" y="128.5"/><text fill="#000000" font-family="sans-serif" font-size="14" lengthAdjust="spacing" textLength="53.71" x="639.4585" y="146.4951">Product</text><line style="stroke:#181818;stroke-width:0.5;" x1="566" x2="766.627" y1="154.7969" y2="154.7969"/><ellipse cx="576" cy="168.4453" fill="none" rx="3" ry="3" style="stroke:#038048;stroke-width:1;"/><text fill="#000000" font-family="sans-serif" font-size="14" lengthAdjust="spacing" textLength="44.6455" x="585" y="171.792">id : int</text><line style="stroke:#181818;stroke-width:1;" x1="566" x2="766.627" y1="179.0938" y2="179.0938"/><text fill="#000000" font-family="sans-serif" font-size="14" lengthAdjust="spacing" textLength="116.0127" x="571" y="196.0889">weight : decimal</text><text fill="#000000" font-family="sans-serif" font-size="14" lengthAdjust="spacing" textLength="80.9512" x="571" y="212.3857">size : string</text><text fill="#000000" font-family="sans-serif" font-size="14" lengthAdjust="spacing" textLength="190.627" x="571" y="228.6826">processing_method : string</text><text fill="#000000" font-family="sans-serif" font-size="14" lengthAdjust="spacing" textLength="76.6309" x="571" y="244.9795">fish_id : int</text></g><!--class Auction--><g class="entity" data-entity="Auction" data-source-line="39" data-uid="ent0006" id="entity_Auction"><rect fill="#F1F1F1" height="107.4844" rx="2.5" ry="2.5" style="stroke:#181818;stroke-width:0.5;" width="159.9912" x="586.5" y="479"/><text fill="#000000" font-family="sans-serif" font-size="14" lengthAdjust="spacing" textLength="52.9648" x="640.0132" y="496.9951">Auction</text><line style="stroke:#181818;stroke-width:0.5;" x1="587.5" x2="745.4912" y1="505.2969" y2="505.2969"/><ellipse cx="597.5" cy="518.9453" fill="none" rx="3" ry="3" style="stroke:#038048;stroke-width:1;"/><text fill="#000000" font-family="sans-serif" font-size="14" lengthAdjust="spacing" textLength="44.6455" x="606.5" y="522.292">id : int</text><line style="stroke:#181818;stroke-width:1;" x1="587.5" x2="745.4912" y1="529.5938" y2="529.5938"/><text fill="#000000" font-family="sans-serif" font-size="14" lengthAdjust="spacing" textLength="147.9912" x="592.5" y="546.5889">start_date : datetime</text><text fill="#000000" font-family="sans-serif" font-size="14" lengthAdjust="spacing" textLength="96.8242" x="592.5" y="562.8857">status : string</text><text fill="#000000" font-family="sans-serif" font-size="14" lengthAdjust="spacing" textLength="127.7637" x="592.5" y="579.1826">winner_bid_id : int</text></g><!--class Fish--><g class="entity" data-entity="Fish" data-source-line="47" data-uid="ent0007" id="entity_Fish"><rect fill="#F1F1F1" height="91.1875" rx="2.5" ry="2.5" style="stroke:#181818;stroke-width:0.5;" width="143.6465" x="266.5" y="149"/><text fill="#000000" font-family="sans-serif" font-size="14" lengthAdjust="spacing" textLength="28.1094" x="324.2686" y="166.9951">Fish</text><line style="stroke:#181818;stroke-width:0.5;" x1="267.5" x2="409.1465" y1="175.2969" y2="175.2969"/><ellipse cx="277.5" cy="188.9453" fill="none" rx="3" ry="3" style="stroke:#038048;stroke-width:1;"/><text fill="#000000" font-family="sans-serif" font-size="14" lengthAdjust="spacing" textLength="44.6455" x="286.5" y="192.292">id : int</text><line style="stroke:#181818;stroke-width:1;" x1="267.5" x2="409.1465" y1="199.5938" y2="199.5938"/><text fill="#000000" font-family="sans-serif" font-size="14" lengthAdjust="spacing" textLength="93.5088" x="272.5" y="216.5889">name : string</text><text fill="#000000" font-family="sans-serif" font-size="14" lengthAdjust="spacing" textLength="131.6465" x="272.5" y="232.8857">description : string</text></g><!--class Bid--><g class="entity" data-entity="Bid" data-source-line="54" data-uid="ent0008" id="entity_Bid"><rect fill="#F1F1F1" height="140.0781" rx="2.5" ry="2.5" style="stroke:#181818;stroke-width:0.5;" width="156.4365" x="852" y="546.5"/><text fill="#000000" font-family="sans-serif" font-size="14" lengthAdjust="spacing" textLength="22.3809" x="919.0278" y="564.4951">Bid</text><line style="stroke:#181818;stroke-width:0.5;" x1="853" x2="1007.4365" y1="572.7969" y2="572.7969"/><ellipse cx="863" cy="586.4453" fill="none" rx="3" ry="3" style="stroke:#038048;stroke-width:1;"/><text fill="#000000" font-family="sans-serif" font-size="14" lengthAdjust="spacing" textLength="44.6455" x="872" y="589.792">id : int</text><line style="stroke:#181818;stroke-width:1;" x1="853" x2="1007.4365" y1="597.0938" y2="597.0938"/><text fill="#000000" font-family="sans-serif" font-size="14" lengthAdjust="spacing" textLength="103.6123" x="858" y="614.0889">auction_id : int</text><text fill="#000000" font-family="sans-serif" font-size="14" lengthAdjust="spacing" textLength="116.1699" x="858" y="630.3857">company_id : int</text><text fill="#000000" font-family="sans-serif" font-size="14" lengthAdjust="spacing" textLength="103.6533" x="858" y="646.6826">price : decimal</text><text fill="#000000" font-family="sans-serif" font-size="14" lengthAdjust="spacing" textLength="144.4365" x="858" y="662.9795">placed_at : datetime</text><text fill="#000000" font-family="sans-serif" font-size="14" lengthAdjust="spacing" textLength="4.4502" x="858" y="679.2764">&#160;</text></g><!--class Deal--><g class="entity" data-entity="Deal" data-source-line="64" data-uid="ent0009" id="entity_Deal"><rect fill="#F1F1F1" height="156.375" rx="2.5" ry="2.5" style="stroke:#181818;stroke-width:0.5;" width="179.248" x="577" y="287.5"/><text fill="#000000" font-family="sans-serif" font-size="14" lengthAdjust="spacing" textLength="31.8623" x="650.6929" y="305.4951">Deal</text><line style="stroke:#181818;stroke-width:0.5;" x1="578" x2="755.248" y1="313.7969" y2="313.7969"/><ellipse cx="588" cy="327.4453" fill="none" rx="3" ry="3" style="stroke:#038048;stroke-width:1;"/><text fill="#000000" font-family="sans-serif" font-size="14" lengthAdjust="spacing" textLength="44.6455" x="597" y="330.792">id : int</text><line style="stroke:#181818;stroke-width:1;" x1="578" x2="755.248" y1="338.0938" y2="338.0938"/><text fill="#000000" font-family="sans-serif" font-size="14" lengthAdjust="spacing" textLength="103.6123" x="583" y="355.0889">auction_id : int</text><text fill="#000000" font-family="sans-serif" font-size="14" lengthAdjust="spacing" textLength="161.2256" x="583" y="371.3857">company_seller_id : int</text><text fill="#000000" font-family="sans-serif" font-size="14" lengthAdjust="spacing" textLength="163.584" x="583" y="387.6826">company_buyer_id : int</text><text fill="#000000" font-family="sans-serif" font-size="14" lengthAdjust="spacing" textLength="167.248" x="583" y="403.9795">product_snapshot : json</text><text fill="#000000" font-family="sans-serif" font-size="14" lengthAdjust="spacing" textLength="103.6533" x="583" y="420.2764">price : decimal</text><text fill="#000000" font-family="sans-serif" font-size="14" lengthAdjust="spacing" textLength="96.8242" x="583" y="436.5732">status : string</text></g><!--class Contract--><g class="entity" data-entity="Contract" data-source-line="75" data-uid="ent0010" id="entity_Contract"><rect fill="#F1F1F1" height="58.5938" rx="2.5" ry="2.5" style="stroke:#181818;stroke-width:0.5;" width="70.6455" x="894.5" y="430"/><text fill="#000000" font-family="sans-serif" font-size="14" lengthAdjust="spacing" textLength="60.2246" x="899.7104" y="447.9951">Contract</text><line style="stroke:#181818;stroke-width:0.5;" x1="895.5" x2="964.1455" y1="456.2969" y2="456.2969"/><ellipse cx="905.5" cy="469.9453" fill="none" rx="3" ry="3" style="stroke:#038048;stroke-width:1;"/><text fill="#000000" font-family="sans-serif" font-size="14" lengthAdjust="spacing" textLength="44.6455" x="914.5" y="473.292">id : int</text><line style="stroke:#181818;stroke-width:0.5;" x1="895.5" x2="964.1455" y1="480.5938" y2="480.5938"/></g><!--class Logistic--><g class="entity" data-entity="Logistic" data-source-line="79" data-uid="ent0011" id="entity_Logistic"><rect fill="#F1F1F1" height="58.5938" rx="2.5" ry="2.5" style="stroke:#181818;stroke-width:0.5;" width="70.6455" x="894.5" y="242"/><text fill="#000000" font-family="sans-serif" font-size="14" lengthAdjust="spacing" textLength="53.5117" x="903.0669" y="259.9951">Logistic</text><line style="stroke:#181818;stroke-width:0.5;" x1="895.5" x2="964.1455" y1="268.2969" y2="268.2969"/><ellipse cx="905.5" cy="281.9453" fill="none" rx="3" ry="3" style="stroke:#038048;stroke-width:1;"/><text fill="#000000" font-family="sans-serif" font-size="14" lengthAdjust="spacing" textLength="44.6455" x="914.5" y="285.292">id : int</text><line style="stroke:#181818;stroke-width:0.5;" x1="895.5" x2="964.1455" y1="292.5938" y2="292.5938"/></g><!--class Payment--><g class="entity" data-entity="Payment" data-source-line="83" data-uid="ent0012" id="entity_Payment"><rect fill="#F1F1F1" height="58.5938" rx="2.5" ry="2.5" style="stroke:#181818;stroke-width:0.5;" width="70.6455" x="894.5" y="336"/><text fill="#000000" font-family="sans-serif" font-size="14" lengthAdjust="spacing" textLength="61.9199" x="898.8628" y="353.9951">Payment</text><line style="stroke:#181818;stroke-width:0.5;" x1="895.5" x2="964.1455" y1="362.2969" y2="362.2969"/><ellipse cx="905.5" cy="375.9453" fill="none" rx="3" ry="3" style="stroke:#038048;stroke-width:1;"/><text fill="#000000" font-family="sans-serif" font-size="14" lengthAdjust="spacing" textLength="44.6455" x="914.5" y="379.292">id : int</text><line style="stroke:#181818;stroke-width:0.5;" x1="895.5" x2="964.1455" y1="386.5938" y2="386.5938"/></g><!--link Company to User--><g class="link" data-entity-1="Company" data-entity-2="User" data-source-line="89" data-uid="lnk13" id="link_Company_User"><path codeLine="89" d="M86.1178,320.8937 C114.8478,271.7537 165.97,191.86 229,131.5 C242.49,118.58 243.6117,116.477 259.2817,106.147" fill="none" id="Company-User" style="stroke:#181818;stroke-width:1;"/><line style="stroke:#181818;stroke-width:1;" x1="87.552" x2="80.6458" y1="326.3658" y2="322.328"/><line style="stroke:#181818;stroke-width:1;" x1="89.0662" x2="82.1599" y1="323.7759" y2="319.7381"/><line style="stroke:#181818;stroke-width:1;" x1="86.1178" x2="82.08" y1="320.8937" y2="327.8"/><line style="stroke:#181818;stroke-width:1;" x1="267.6307" x2="271.0077" y1="100.6431" y2="91.2306"/><line style="stroke:#181818;stroke-width:1;" x1="267.6307" x2="277.6123" y1="100.6431" y2="101.2494"/><line style="stroke:#181818;stroke-width:1;" x1="267.6307" x2="274.31" y1="100.6431" y2="96.24"/><ellipse cx="262.6213" cy="103.9455" fill="none" rx="4" ry="4" style="stroke:#181818;stroke-width:1;"/><text fill="#000000" font-family="sans-serif" font-size="13" lengthAdjust="spacing" textLength="54.9453" x="144" y="161.5669">employs</text></g><!--link Company to Lot--><g class="link" data-entity-1="Company" data-entity-2="Lot" data-source-line="90" data-uid="lnk14" id="link_Company_Lot"><path codeLine="90" d="M121.01,365.5 C153.62,365.5 170.9,365.5 210.75,365.5" fill="none" id="Company-Lot" style="stroke:#181818;stroke-width:1;"/><line style="stroke:#181818;stroke-width:1;" x1="117.01" x2="117.01" y1="369.5" y2="361.5"/><line style="stroke:#181818;stroke-width:1;" x1="120.01" x2="120.01" y1="369.5" y2="361.5"/><line style="stroke:#181818;stroke-width:1;" x1="121.01" x2="113.01" y1="365.5" y2="365.5"/><line style="stroke:#181818;stroke-width:1;" x1="220.75" x2="228.75" y1="365.5" y2="359.5"/><line style="stroke:#181818;stroke-width:1;" x1="220.75" x2="228.75" y1="365.5" y2="371.5"/><line style="stroke:#181818;stroke-width:1;" x1="220.75" x2="228.75" y1="365.5" y2="365.5"/><ellipse cx="214.75" cy="365.5" fill="none" rx="4" ry="4" style="stroke:#181818;stroke-width:1;"/><text fill="#000000" font-family="sans-serif" font-size="13" lengthAdjust="spacing" textLength="33.5981" x="154.5" y="361.5669">owns</text></g><!--link Lot to Product--><g class="link" data-entity-1="Lot" data-entity-2="Product" data-source-line="92" data-uid="lnk15" id="link_Lot_Product"><path codeLine="92" d="M455.0984,303.4459 C492.7984,283.2059 520.7812,268.1834 557.8012,248.3134" fill="none" id="Lot-Product" style="stroke:#181818;stroke-width:1;"/><line style="stroke:#181818;stroke-width:1;" x1="453.4663" x2="449.6822" y1="308.8622" y2="301.8137"/><line style="stroke:#181818;stroke-width:1;" x1="456.1094" x2="452.3253" y1="307.4431" y2="300.3947"/><line style="stroke:#181818;stroke-width:1;" x1="455.0984" x2="448.05" y1="303.4459" y2="307.23"/><line style="stroke:#181818;stroke-width:1;" x1="559.4339" x2="563.2173" y1="242.8973" y2="249.9461"/><line style="stroke:#181818;stroke-width:1;" x1="556.7906" x2="560.574" y1="244.316" y2="251.3649"/><line style="stroke:#181818;stroke-width:1;" x1="557.8012" x2="564.85" y1="248.3134" y2="244.53"/><text fill="#000000" font-family="sans-serif" font-size="13" lengthAdjust="spacing" textLength="55.0278" x="479" y="258.5669">contains</text></g><!--link Lot to Auction--><g class="link" data-entity-1="Lot" data-entity-2="Auction" data-source-line="93" data-uid="lnk16" id="link_Lot_Auction"><path codeLine="93" d="M455.1704,424.7569 C500.3704,447.9069 537.6299,466.9925 579.1699,488.2725" fill="none" id="Lot-Auction" style="stroke:#181818;stroke-width:1;"/><line style="stroke:#181818;stroke-width:1;" x1="449.7868" x2="453.4336" y1="426.4936" y2="419.3732"/><line style="stroke:#181818;stroke-width:1;" x1="452.4569" x2="456.1038" y1="427.8612" y2="420.7408"/><line style="stroke:#181818;stroke-width:1;" x1="455.1704" x2="448.05" y1="424.7569" y2="421.11"/><line style="stroke:#181818;stroke-width:1;" x1="584.5537" x2="580.9062" y1="486.5362" y2="493.6563"/><line style="stroke:#181818;stroke-width:1;" x1="581.8836" x2="578.2362" y1="485.1684" y2="492.2885"/><line style="stroke:#181818;stroke-width:1;" x1="579.1699" x2="586.29" y1="488.2725" y2="491.92"/><text fill="#000000" font-family="sans-serif" font-size="13" lengthAdjust="spacing" textLength="37.0513" x="488" y="434.5669">starts</text></g><!--link Lot to Deal--><g class="link" data-entity-1="Lot" data-entity-2="Deal" data-source-line="94" data-uid="lnk17" id="link_Lot_Deal"><path codeLine="94" d="M456.05,365.5 C497.91,365.5 529.19,365.5 568.94,365.5" fill="none" id="Lot-Deal" style="stroke:#181818;stroke-width:1;"/><line style="stroke:#181818;stroke-width:1;" x1="452.05" x2="452.05" y1="369.5" y2="361.5"/><line style="stroke:#181818;stroke-width:1;" x1="455.05" x2="455.05" y1="369.5" y2="361.5"/><line style="stroke:#181818;stroke-width:1;" x1="456.05" x2="448.05" y1="365.5" y2="365.5"/><line style="stroke:#181818;stroke-width:1;" x1="572.94" x2="572.94" y1="361.5" y2="369.5"/><line style="stroke:#181818;stroke-width:1;" x1="569.94" x2="569.94" y1="361.5" y2="369.5"/><line style="stroke:#181818;stroke-width:1;" x1="568.94" x2="576.94" y1="365.5" y2="365.5"/><text fill="#000000" font-family="sans-serif" font-size="13" lengthAdjust="spacing" textLength="48.3247" x="482.5" y="361.5669">creates</text></g><!--link Fish to Product--><g class="link" data-entity-1="Fish" data-entity-2="Product" data-source-line="96" data-uid="lnk18" id="link_Fish_Product"><path codeLine="96" d="M418.6394,193.5308 C463.7894,192.9708 496.9013,192.5699 546.8313,191.9599" fill="none" id="Fish-Product" style="stroke:#181818;stroke-width:1;"/><line style="stroke:#181818;stroke-width:1;" x1="414.6893" x2="414.5901" y1="197.5801" y2="189.5807"/><line style="stroke:#181818;stroke-width:1;" x1="417.6891" x2="417.5899" y1="197.5429" y2="189.5435"/><line style="stroke:#181818;stroke-width:1;" x1="418.6394" x2="410.64" y1="193.5308" y2="193.63"/><line style="stroke:#181818;stroke-width:1;" x1="556.8306" x2="564.7567" y1="191.8377" y2="185.7404"/><line style="stroke:#181818;stroke-width:1;" x1="556.8306" x2="564.9033" y1="191.8377" y2="197.7396"/><line style="stroke:#181818;stroke-width:1;" x1="556.8306" x2="564.83" y1="191.8377" y2="191.74"/><ellipse cx="550.831" cy="191.911" fill="none" rx="4" ry="4" style="stroke:#181818;stroke-width:1;"/><text fill="#000000" font-family="sans-serif" font-size="13" lengthAdjust="spacing" textLength="49.6133" x="482" y="188.5669">used_in</text></g><!--link Auction to Bid--><g class="link" data-entity-1="Auction" data-entity-2="Bid" data-source-line="98" data-uid="lnk19" id="link_Auction_Bid"><path codeLine="98" d="M754.2866,560.3768 C787.6566,571.0968 801.6112,575.589 834.7612,586.229" fill="none" id="Auction-Bid" style="stroke:#181818;stroke-width:1;"/><line style="stroke:#181818;stroke-width:1;" x1="749.2549" x2="751.7017" y1="562.9617" y2="555.3451"/><line style="stroke:#181818;stroke-width:1;" x1="752.1111" x2="754.558" y1="563.8793" y2="556.2626"/><line style="stroke:#181818;stroke-width:1;" x1="754.2866" x2="746.67" y1="560.3768" y2="557.93"/><line style="stroke:#181818;stroke-width:1;" x1="844.2827" x2="853.7337" y1="589.2851" y2="586.0171"/><line style="stroke:#181818;stroke-width:1;" x1="844.2827" x2="850.0663" y1="589.2851" y2="597.4429"/><line style="stroke:#181818;stroke-width:1;" x1="844.2827" x2="851.9" y1="589.2851" y2="591.73"/><ellipse cx="838.5698" cy="587.4515" fill="none" rx="4" ry="4" style="stroke:#181818;stroke-width:1;"/><text fill="#000000" font-family="sans-serif" font-size="13" lengthAdjust="spacing" textLength="22.9785" x="799" y="570.5669">has</text></g><!--link Company to Bid--><g class="link" data-entity-1="Company" data-entity-2="Bid" data-source-line="99" data-uid="lnk20" id="link_Company_Bid"><path codeLine="99" d="M120.0382,405.5895 C152.5082,426.8995 188.87,449.27 229,469.5 C372.56,541.87 407.68,570.36 565,603.5 C662.3,623.99 759.4235,624.917 833.7435,622.037" fill="none" id="Company-Bid" style="stroke:#181818;stroke-width:1;"/><line style="stroke:#181818;stroke-width:1;" x1="114.4994" x2="118.8889" y1="406.7389" y2="400.0506"/><line style="stroke:#181818;stroke-width:1;" x1="117.0075" x2="121.3969" y1="408.3849" y2="401.6967"/><line style="stroke:#181818;stroke-width:1;" x1="120.0382" x2="113.35" y1="405.5895" y2="401.2"/><line style="stroke:#181818;stroke-width:1;" x1="843.736" x2="851.4977" y1="621.6498" y2="615.3445"/><line style="stroke:#181818;stroke-width:1;" x1="843.736" x2="851.9623" y1="621.6498" y2="627.3355"/><line style="stroke:#181818;stroke-width:1;" x1="843.736" x2="851.73" y1="621.6498" y2="621.34"/><ellipse cx="837.7405" cy="621.8821" fill="none" rx="4" ry="4" style="stroke:#181818;stroke-width:1;"/><text fill="#000000" font-family="sans-serif" font-size="13" lengthAdjust="spacing" textLength="41.7485" x="486" y="577.5669">places</text></g><!--link Deal to Contract--><g class="link" data-entity-1="Deal" data-entity-2="Contract" data-source-line="101" data-uid="lnk21" id="link_Deal_Contract"><path codeLine="101" d="M763.5582,400.0268 C810.9782,417.0768 842.2226,428.2971 877.3326,440.9271" fill="none" id="Deal-Contract" style="stroke:#181818;stroke-width:1;"/><line style="stroke:#181818;stroke-width:1;" x1="758.4407" x2="761.1475" y1="402.4375" y2="394.9093"/><line style="stroke:#181818;stroke-width:1;" x1="761.2638" x2="763.9705" y1="403.4525" y2="395.9243"/><line style="stroke:#181818;stroke-width:1;" x1="763.5582" x2="756.03" y1="400.0268" y2="397.32"/><line style="stroke:#181818;stroke-width:1;" x1="886.7422" x2="896.301" y1="444.3121" y2="441.3742"/><line style="stroke:#181818;stroke-width:1;" x1="886.7422" x2="892.239" y1="444.3121" y2="452.6658"/><line style="stroke:#181818;stroke-width:1;" x1="886.7422" x2="894.27" y1="444.3121" y2="447.02"/><ellipse cx="881.0964" cy="442.2811" fill="none" rx="4" ry="4" style="stroke:#181818;stroke-width:1;"/><text fill="#000000" font-family="sans-serif" font-size="13" lengthAdjust="spacing" textLength="22.9785" x="799" y="408.5669">has</text></g><!--link Deal to Logistic--><g class="link" data-entity-1="Deal" data-entity-2="Logistic" data-source-line="102" data-uid="lnk22" id="link_Deal_Logistic"><path codeLine="102" d="M763.5582,330.9732 C810.9782,313.9232 845.0455,301.6874 880.1555,289.0574" fill="none" id="Deal-Logistic" style="stroke:#181818;stroke-width:1;"/><line style="stroke:#181818;stroke-width:1;" x1="761.1475" x2="758.4407" y1="336.0907" y2="328.5625"/><line style="stroke:#181818;stroke-width:1;" x1="763.9705" x2="761.2638" y1="335.0757" y2="327.5475"/><line style="stroke:#181818;stroke-width:1;" x1="763.5582" x2="756.03" y1="330.9732" y2="333.68"/><line style="stroke:#181818;stroke-width:1;" x1="883.9193" x2="894.27" y1="287.7034" y2="283.98"/><ellipse cx="883.9193" cy="287.7034" fill="none" rx="4" ry="4" style="stroke:#181818;stroke-width:1;"/><line style="stroke:#181818;stroke-width:1;" x1="889.1522" x2="891.8601" y1="281.5701" y2="289.0978"/><text fill="#000000" font-family="sans-serif" font-size="13" lengthAdjust="spacing" textLength="22.9785" x="799" y="305.5669">has</text></g><!--link Deal to Payment--><g class="link" data-entity-1="Deal" data-entity-2="Payment" data-source-line="103" data-uid="lnk23" id="link_Deal_Payment"><path codeLine="103" d="M764.03,365.5 C811.45,365.5 844.16,365.5 879.27,365.5" fill="none" id="Deal-Payment" style="stroke:#181818;stroke-width:1;"/><line style="stroke:#181818;stroke-width:1;" x1="760.03" x2="760.03" y1="369.5" y2="361.5"/><line style="stroke:#181818;stroke-width:1;" x1="763.03" x2="763.03" y1="369.5" y2="361.5"/><line style="stroke:#181818;stroke-width:1;" x1="764.03" x2="756.03" y1="365.5" y2="365.5"/><line style="stroke:#181818;stroke-width:1;" x1="883.27" x2="894.27" y1="365.5" y2="365.5"/><ellipse cx="883.27" cy="365.5" fill="none" rx="4" ry="4" style="stroke:#181818;stroke-width:1;"/><line style="stroke:#181818;stroke-width:1;" x1="890.27" x2="890.27" y1="361.5" y2="369.5"/><text fill="#000000" font-family="sans-serif" font-size="13" lengthAdjust="spacing" textLength="22.9785" x="799" y="361.5669">has</text></g><!--SRC=[bLGxRjmm4Erv2dOfWht0Th63L2xSf1PeShoQW285SWH3iNm6do5NI9CSOtEZZCZLYclHm5g5HCxZp7lpeImyaYGl0nvQaWO3Q4BlH8i6fCQWBGW1Zf16-Jr2aCz2oizev5wY8rxlTlpIlkkL6vl2xbG7l8aKq1ru7xmjzY_deBVPjHxtCiZgTEVfQY5zy6RGL9hKa98iJP5KeAOFg6T20nexPPFtMylYd3sCeWJpXx2378c6M5DzdvNKbJz1wa395F7dHGav4mqnygRfW5flIl0HOxicj99-oNBhf5Vc86Tzw1o4vW5DZUKRir_JGidfHHsmJvegDRfX_sgSIi-gpTuqq2eDfb5KPbWGVWLbFymOmLekHWLv6CPBO1c_w5GVMp_B-17vWjMqlZywjzvHK9lPAM_40IEXVlV0lHexNcxnJvpjwP77NyVV_rwFVuv_LwCGonMTfjtEF-VVm5v2rri_nhVeNKhHFxaenBoUpTDqdlqzLygHGeOBT1dIVPx82omrYDq2SFSuQ1gr4zaQTOZSP7H2BA5E9svIggtQwCn0cWuEcaXEoBdMsM-5fhNAMsYfRqB-0m00]--></g></svg>