<svg xmlns="http://www.w3.org/2000/svg" xmlns:xlink="http://www.w3.org/1999/xlink" contentStyleType="text/css" data-diagram-type="CLASS" height="585px" preserveAspectRatio="none" style="width:1232px;height:585px;background:#FFFFFF;" version="1.1" viewBox="0 0 1232 585" width="1232px" zoomAndPan="magnify"><defs/><g><!--class User--><g class="entity" data-entity="User" data-source-line="4" data-uid="ent0002" id="entity_User"><rect fill="#F1F1F1" height="107.4844" rx="2.5" ry="2.5" style="stroke:#181818;stroke-width:0.5;" width="128.1699" x="274.5" y="7"/><text fill="#000000" font-family="sans-serif" font-size="14" lengthAdjust="spacing" textLength="31.9102" x="322.6299" y="24.9951">User</text><line style="stroke:#181818;stroke-width:0.5;" x1="275.5" x2="401.6699" y1="33.2969" y2="33.2969"/><ellipse cx="285.5" cy="46.9453" fill="none" rx="3" ry="3" style="stroke:#038048;stroke-width:1;"/><text fill="#000000" font-family="sans-serif" font-size="14" lengthAdjust="spacing" textLength="44.6455" x="294.5" y="50.292">id : int</text><line style="stroke:#181818;stroke-width:1;" x1="275.5" x2="401.6699" y1="57.5938" y2="57.5938"/><text fill="#000000" font-family="sans-serif" font-size="14" lengthAdjust="spacing" textLength="116.1699" x="280.5" y="74.5889">company_id : int</text><text fill="#000000" font-family="sans-serif" font-size="14" lengthAdjust="spacing" textLength="93.5088" x="280.5" y="90.8857">name : string</text><text fill="#000000" font-family="sans-serif" font-size="14" lengthAdjust="spacing" textLength="80.6299" x="280.5" y="107.1826">role : string</text></g><!--class Company--><g class="entity" data-entity="Company" data-source-line="12" data-uid="ent0003" id="entity_Company"><rect fill="#F1F1F1" height="74.8906" rx="2.5" ry="2.5" style="stroke:#181818;stroke-width:0.5;" width="105.5088" x="7" y="198"/><text fill="#000000" font-family="sans-serif" font-size="14" lengthAdjust="spacing" textLength="66.6025" x="26.4531" y="215.9951">Company</text><line style="stroke:#181818;stroke-width:0.5;" x1="8" x2="111.5088" y1="224.2969" y2="224.2969"/><ellipse cx="18" cy="237.9453" fill="none" rx="3" ry="3" style="stroke:#038048;stroke-width:1;"/><text fill="#000000" font-family="sans-serif" font-size="14" lengthAdjust="spacing" textLength="44.6455" x="27" y="241.292">id : int</text><line style="stroke:#181818;stroke-width:1;" x1="8" x2="111.5088" y1="248.5937" y2="248.5937"/><text fill="#000000" font-family="sans-serif" font-size="14" lengthAdjust="spacing" textLength="93.5088" x="13" y="265.5889">name : string</text></g><!--class Lot--><g class="entity" data-entity="Lot" data-source-line="18" data-uid="ent0004" id="entity_Lot"><rect fill="#F1F1F1" height="172.6719" rx="2.5" ry="2.5" style="stroke:#181818;stroke-width:0.5;" width="218.958" x="229" y="149"/><text fill="#000000" font-family="sans-serif" font-size="14" lengthAdjust="spacing" textLength="21.8545" x="327.5518" y="166.9951">Lot</text><line style="stroke:#181818;stroke-width:0.5;" x1="230" x2="446.958" y1="175.2969" y2="175.2969"/><ellipse cx="240" cy="188.9453" fill="none" rx="3" ry="3" style="stroke:#038048;stroke-width:1;"/><text fill="#000000" font-family="sans-serif" font-size="14" lengthAdjust="spacing" textLength="44.6455" x="249" y="192.292">id : int</text><line style="stroke:#181818;stroke-width:1;" x1="230" x2="446.958" y1="199.5937" y2="199.5937"/><text fill="#000000" font-family="sans-serif" font-size="14" lengthAdjust="spacing" textLength="116.1699" x="235" y="216.5889">company_id : int</text><text fill="#000000" font-family="sans-serif" font-size="14" lengthAdjust="spacing" textLength="105.7998" x="235" y="232.8857">product_id : int</text><text fill="#000000" font-family="sans-serif" font-size="14" lengthAdjust="spacing" textLength="103.6123" x="235" y="249.1826">auction_id : int</text><text fill="#000000" font-family="sans-serif" font-size="14" lengthAdjust="spacing" textLength="143.2607" x="235" y="265.4795">start_price : decimal</text><text fill="#000000" font-family="sans-serif" font-size="14" lengthAdjust="spacing" textLength="103.6533" x="235" y="281.7764">price : decimal</text><text fill="#000000" font-family="sans-serif" font-size="14" lengthAdjust="spacing" textLength="206.958" x="235" y="298.0732">auction_start_date : datetime</text><text fill="#000000" font-family="sans-serif" font-size="14" lengthAdjust="spacing" textLength="96.8242" x="235" y="314.3701">status : string</text></g><!--class Product--><g class="entity" data-entity="Product" data-source-line="30" data-uid="ent0005" id="entity_Product"><rect fill="#F1F1F1" height="123.7813" rx="2.5" ry="2.5" style="stroke:#181818;stroke-width:0.5;" width="202.627" x="565" y="324.5"/><text fill="#000000" font-family="sans-serif" font-size="14" lengthAdjust="spacing" textLength="53.71" x="639.4585" y="342.4951">Product</text><line style="stroke:#181818;stroke-width:0.5;" x1="566" x2="766.627" y1="350.7969" y2="350.7969"/><ellipse cx="576" cy="364.4453" fill="none" rx="3" ry="3" style="stroke:#038048;stroke-width:1;"/><text fill="#000000" font-family="sans-serif" font-size="14" lengthAdjust="spacing" textLength="44.6455" x="585" y="367.792">id : int</text><line style="stroke:#181818;stroke-width:1;" x1="566" x2="766.627" y1="375.0938" y2="375.0938"/><text fill="#000000" font-family="sans-serif" font-size="14" lengthAdjust="spacing" textLength="116.0127" x="571" y="392.0889">weight : decimal</text><text fill="#000000" font-family="sans-serif" font-size="14" lengthAdjust="spacing" textLength="80.9512" x="571" y="408.3857">size : string</text><text fill="#000000" font-family="sans-serif" font-size="14" lengthAdjust="spacing" textLength="190.627" x="571" y="424.6826">processing_method : string</text><text fill="#000000" font-family="sans-serif" font-size="14" lengthAdjust="spacing" textLength="76.6309" x="571" y="440.9795">fish_id : int</text></g><!--class Auction--><g class="entity" data-entity="Auction" data-source-line="39" data-uid="ent0006" id="entity_Auction"><rect fill="#F1F1F1" height="107.4844" rx="2.5" ry="2.5" style="stroke:#181818;stroke-width:0.5;" width="159.9912" x="586.5" y="182"/><text fill="#000000" font-family="sans-serif" font-size="14" lengthAdjust="spacing" textLength="52.9648" x="640.0132" y="199.9951">Auction</text><line style="stroke:#181818;stroke-width:0.5;" x1="587.5" x2="745.4912" y1="208.2969" y2="208.2969"/><ellipse cx="597.5" cy="221.9453" fill="none" rx="3" ry="3" style="stroke:#038048;stroke-width:1;"/><text fill="#000000" font-family="sans-serif" font-size="14" lengthAdjust="spacing" textLength="44.6455" x="606.5" y="225.292">id : int</text><line style="stroke:#181818;stroke-width:1;" x1="587.5" x2="745.4912" y1="232.5937" y2="232.5937"/><text fill="#000000" font-family="sans-serif" font-size="14" lengthAdjust="spacing" textLength="147.9912" x="592.5" y="249.5889">start_date : datetime</text><text fill="#000000" font-family="sans-serif" font-size="14" lengthAdjust="spacing" textLength="96.8242" x="592.5" y="265.8857">status : string</text><text fill="#000000" font-family="sans-serif" font-size="14" lengthAdjust="spacing" textLength="127.7637" x="592.5" y="282.1826">winner_bid_id : int</text></g><!--class Fish--><g class="entity" data-entity="Fish" data-source-line="47" data-uid="ent0007" id="entity_Fish"><rect fill="#F1F1F1" height="91.1875" rx="2.5" ry="2.5" style="stroke:#181818;stroke-width:0.5;" width="143.6465" x="266.5" y="357"/><text fill="#000000" font-family="sans-serif" font-size="14" lengthAdjust="spacing" textLength="28.1094" x="324.2686" y="374.9951">Fish</text><line style="stroke:#181818;stroke-width:0.5;" x1="267.5" x2="409.1465" y1="383.2969" y2="383.2969"/><ellipse cx="277.5" cy="396.9453" fill="none" rx="3" ry="3" style="stroke:#038048;stroke-width:1;"/><text fill="#000000" font-family="sans-serif" font-size="14" lengthAdjust="spacing" textLength="44.6455" x="286.5" y="400.292">id : int</text><line style="stroke:#181818;stroke-width:1;" x1="267.5" x2="409.1465" y1="407.5938" y2="407.5938"/><text fill="#000000" font-family="sans-serif" font-size="14" lengthAdjust="spacing" textLength="93.5088" x="272.5" y="424.5889">name : string</text><text fill="#000000" font-family="sans-serif" font-size="14" lengthAdjust="spacing" textLength="131.6465" x="272.5" y="440.8857">description : string</text></g><!--class Bid--><g class="entity" data-entity="Bid" data-source-line="54" data-uid="ent0008" id="entity_Bid"><rect fill="#F1F1F1" height="123.7813" rx="2.5" ry="2.5" style="stroke:#181818;stroke-width:0.5;" width="156.4365" x="903.5" y="393.5"/><text fill="#000000" font-family="sans-serif" font-size="14" lengthAdjust="spacing" textLength="22.3809" x="970.5278" y="411.4951">Bid</text><line style="stroke:#181818;stroke-width:0.5;" x1="904.5" x2="1058.9365" y1="419.7969" y2="419.7969"/><ellipse cx="914.5" cy="433.4453" fill="none" rx="3" ry="3" style="stroke:#038048;stroke-width:1;"/><text fill="#000000" font-family="sans-serif" font-size="14" lengthAdjust="spacing" textLength="44.6455" x="923.5" y="436.792">id : int</text><line style="stroke:#181818;stroke-width:1;" x1="904.5" x2="1058.9365" y1="444.0938" y2="444.0938"/><text fill="#000000" font-family="sans-serif" font-size="14" lengthAdjust="spacing" textLength="103.6123" x="909.5" y="461.0889">auction_id : int</text><text fill="#000000" font-family="sans-serif" font-size="14" lengthAdjust="spacing" textLength="116.1699" x="909.5" y="477.3857">company_id : int</text><text fill="#000000" font-family="sans-serif" font-size="14" lengthAdjust="spacing" textLength="103.6533" x="909.5" y="493.6826">price : decimal</text><text fill="#000000" font-family="sans-serif" font-size="14" lengthAdjust="spacing" textLength="144.4365" x="909.5" y="509.9795">placed_at : datetime</text></g><!--class Deal--><g class="entity" data-entity="Deal" data-source-line="63" data-uid="ent0009" id="entity_Deal"><rect fill="#F1F1F1" height="156.375" rx="2.5" ry="2.5" style="stroke:#181818;stroke-width:0.5;" width="179.248" x="892" y="157.5"/><text fill="#000000" font-family="sans-serif" font-size="14" lengthAdjust="spacing" textLength="31.8623" x="965.6929" y="175.4951">Deal</text><line style="stroke:#181818;stroke-width:0.5;" x1="893" x2="1070.248" y1="183.7969" y2="183.7969"/><ellipse cx="903" cy="197.4453" fill="none" rx="3" ry="3" style="stroke:#038048;stroke-width:1;"/><text fill="#000000" font-family="sans-serif" font-size="14" lengthAdjust="spacing" textLength="44.6455" x="912" y="200.792">id : int</text><line style="stroke:#181818;stroke-width:1;" x1="893" x2="1070.248" y1="208.0937" y2="208.0937"/><text fill="#000000" font-family="sans-serif" font-size="14" lengthAdjust="spacing" textLength="103.6123" x="898" y="225.0889">auction_id : int</text><text fill="#000000" font-family="sans-serif" font-size="14" lengthAdjust="spacing" textLength="161.2256" x="898" y="241.3857">company_seller_id : int</text><text fill="#000000" font-family="sans-serif" font-size="14" lengthAdjust="spacing" textLength="163.584" x="898" y="257.6826">company_buyer_id : int</text><text fill="#000000" font-family="sans-serif" font-size="14" lengthAdjust="spacing" textLength="167.248" x="898" y="273.9795">product_snapshot : json</text><text fill="#000000" font-family="sans-serif" font-size="14" lengthAdjust="spacing" textLength="103.6533" x="898" y="290.2764">price : decimal</text><text fill="#000000" font-family="sans-serif" font-size="14" lengthAdjust="spacing" textLength="96.8242" x="898" y="306.5732">status : string</text></g><!--class Contract--><g class="entity" data-entity="Contract" data-source-line="74" data-uid="ent0010" id="entity_Contract"><rect fill="#F1F1F1" height="58.5938" rx="2.5" ry="2.5" style="stroke:#181818;stroke-width:0.5;" width="70.6455" x="1155" y="112"/><text fill="#000000" font-family="sans-serif" font-size="14" lengthAdjust="spacing" textLength="60.2246" x="1160.2104" y="129.9951">Contract</text><line style="stroke:#181818;stroke-width:0.5;" x1="1156" x2="1224.6455" y1="138.2969" y2="138.2969"/><ellipse cx="1166" cy="151.9453" fill="none" rx="3" ry="3" style="stroke:#038048;stroke-width:1;"/><text fill="#000000" font-family="sans-serif" font-size="14" lengthAdjust="spacing" textLength="44.6455" x="1175" y="155.292">id : int</text><line style="stroke:#181818;stroke-width:0.5;" x1="1156" x2="1224.6455" y1="162.5937" y2="162.5937"/></g><!--class Logistic--><g class="entity" data-entity="Logistic" data-source-line="78" data-uid="ent0011" id="entity_Logistic"><rect fill="#F1F1F1" height="58.5938" rx="2.5" ry="2.5" style="stroke:#181818;stroke-width:0.5;" width="70.6455" x="1155" y="206"/><text fill="#000000" font-family="sans-serif" font-size="14" lengthAdjust="spacing" textLength="53.5117" x="1163.5669" y="223.9951">Logistic</text><line style="stroke:#181818;stroke-width:0.5;" x1="1156" x2="1224.6455" y1="232.2969" y2="232.2969"/><ellipse cx="1166" cy="245.9453" fill="none" rx="3" ry="3" style="stroke:#038048;stroke-width:1;"/><text fill="#000000" font-family="sans-serif" font-size="14" lengthAdjust="spacing" textLength="44.6455" x="1175" y="249.292">id : int</text><line style="stroke:#181818;stroke-width:0.5;" x1="1156" x2="1224.6455" y1="256.5937" y2="256.5937"/></g><!--class Payment--><g class="entity" data-entity="Payment" data-source-line="82" data-uid="ent0012" id="entity_Payment"><rect fill="#F1F1F1" height="58.5938" rx="2.5" ry="2.5" style="stroke:#181818;stroke-width:0.5;" width="70.6455" x="1155" y="300"/><text fill="#000000" font-family="sans-serif" font-size="14" lengthAdjust="spacing" textLength="61.9199" x="1159.3628" y="317.9951">Payment</text><line style="stroke:#181818;stroke-width:0.5;" x1="1156" x2="1224.6455" y1="326.2969" y2="326.2969"/><ellipse cx="1166" cy="339.9453" fill="none" rx="3" ry="3" style="stroke:#038048;stroke-width:1;"/><text fill="#000000" font-family="sans-serif" font-size="14" lengthAdjust="spacing" textLength="44.6455" x="1175" y="343.292">id : int</text><line style="stroke:#181818;stroke-width:0.5;" x1="1156" x2="1224.6455" y1="350.5938" y2="350.5938"/></g><!--link Company to User--><g class="link" data-entity-1="Company" data-entity-2="User" data-source-line="88" data-uid="lnk13" id="link_Company_User"><path codeLine="88" d="M119.7699,198.3118 C165.4499,169.4018 210.0709,141.1572 258.8709,110.2672" fill="none" id="Company-User" style="stroke:#181818;stroke-width:1;"/><line style="stroke:#181818;stroke-width:1;" x1="118.5291" x2="114.2509" y1="203.8309" y2="197.0709"/><line style="stroke:#181818;stroke-width:1;" x1="121.0641" x2="116.7858" y1="202.2265" y2="195.4666"/><line style="stroke:#181818;stroke-width:1;" x1="119.7699" x2="113.01" y1="198.3118" y2="202.59"/><line style="stroke:#181818;stroke-width:1;" x1="267.3204" x2="270.8709" y1="104.9188" y2="95.5703"/><line style="stroke:#181818;stroke-width:1;" x1="267.3204" x2="277.2891" y1="104.9188" y2="105.7097"/><line style="stroke:#181818;stroke-width:1;" x1="267.3204" x2="274.08" y1="104.9188" y2="100.64"/><ellipse cx="262.2507" cy="108.1278" fill="none" rx="4" ry="4" style="stroke:#181818;stroke-width:1;"/><text fill="#000000" font-family="sans-serif" font-size="13" lengthAdjust="spacing" textLength="54.9453" x="144" y="149.5669">employs</text></g><!--link Company to Lot--><g class="link" data-entity-1="Company" data-entity-2="Lot" data-source-line="89" data-uid="lnk14" id="link_Company_Lot"><path codeLine="89" d="M121.01,235.5 C153.62,235.5 170.9,235.5 210.75,235.5" fill="none" id="Company-Lot" style="stroke:#181818;stroke-width:1;"/><line style="stroke:#181818;stroke-width:1;" x1="117.01" x2="117.01" y1="239.5" y2="231.5"/><line style="stroke:#181818;stroke-width:1;" x1="120.01" x2="120.01" y1="239.5" y2="231.5"/><line style="stroke:#181818;stroke-width:1;" x1="121.01" x2="113.01" y1="235.5" y2="235.5"/><line style="stroke:#181818;stroke-width:1;" x1="220.75" x2="228.75" y1="235.5" y2="229.5"/><line style="stroke:#181818;stroke-width:1;" x1="220.75" x2="228.75" y1="235.5" y2="241.5"/><line style="stroke:#181818;stroke-width:1;" x1="220.75" x2="228.75" y1="235.5" y2="235.5"/><ellipse cx="214.75" cy="235.5" fill="none" rx="4" ry="4" style="stroke:#181818;stroke-width:1;"/><text fill="#000000" font-family="sans-serif" font-size="13" lengthAdjust="spacing" textLength="33.5981" x="154.5" y="231.5669">owns</text></g><!--link Lot to Product--><g class="link" data-entity-1="Lot" data-entity-2="Product" data-source-line="91" data-uid="lnk15" id="link_Lot_Product"><path codeLine="91" d="M455.3093,289.142 C493.0093,306.602 520.5711,319.3672 557.5911,336.5172" fill="none" id="Lot-Product" style="stroke:#181818;stroke-width:1;"/><line style="stroke:#181818;stroke-width:1;" x1="449.9986" x2="453.3606" y1="291.0906" y2="283.8314"/><line style="stroke:#181818;stroke-width:1;" x1="452.7209" x2="456.0829" y1="292.3514" y2="285.0921"/><line style="stroke:#181818;stroke-width:1;" x1="455.3093" x2="448.05" y1="289.142" y2="285.78"/><line style="stroke:#181818;stroke-width:1;" x1="562.9019" x2="559.5392" y1="334.5692" y2="341.8281"/><line style="stroke:#181818;stroke-width:1;" x1="560.1798" x2="556.8171" y1="333.3081" y2="340.567"/><line style="stroke:#181818;stroke-width:1;" x1="557.5911" x2="564.85" y1="336.5172" y2="339.88"/><text fill="#000000" font-family="sans-serif" font-size="13" lengthAdjust="spacing" textLength="55.0278" x="479" y="297.5669">contains</text></g><!--link Lot to Auction--><g class="link" data-entity-1="Lot" data-entity-2="Auction" data-source-line="92" data-uid="lnk16" id="link_Lot_Auction"><path codeLine="92" d="M456.05,235.5 C501.25,235.5 536.75,235.5 578.29,235.5" fill="none" id="Lot-Auction" style="stroke:#181818;stroke-width:1;"/><line style="stroke:#181818;stroke-width:1;" x1="452.05" x2="452.05" y1="239.5" y2="231.5"/><line style="stroke:#181818;stroke-width:1;" x1="455.05" x2="455.05" y1="239.5" y2="231.5"/><line style="stroke:#181818;stroke-width:1;" x1="456.05" x2="448.05" y1="235.5" y2="235.5"/><line style="stroke:#181818;stroke-width:1;" x1="582.29" x2="582.29" y1="231.5" y2="239.5"/><line style="stroke:#181818;stroke-width:1;" x1="579.29" x2="579.29" y1="231.5" y2="239.5"/><line style="stroke:#181818;stroke-width:1;" x1="578.29" x2="586.29" y1="235.5" y2="235.5"/><text fill="#000000" font-family="sans-serif" font-size="13" lengthAdjust="spacing" textLength="37.0513" x="488" y="231.5669">starts</text></g><!--link Fish to Product--><g class="link" data-entity-1="Fish" data-entity-2="Product" data-source-line="94" data-uid="lnk17" id="link_Fish_Product"><path codeLine="94" d="M418.6304,398.6189 C463.7804,396.4089 496.9216,394.7722 546.8516,392.3222" fill="none" id="Fish-Product" style="stroke:#181818;stroke-width:1;"/><line style="stroke:#181818;stroke-width:1;" x1="414.8308" x2="414.4397" y1="402.8097" y2="394.8192"/><line style="stroke:#181818;stroke-width:1;" x1="417.8272" x2="417.4361" y1="402.663" y2="394.6726"/><line style="stroke:#181818;stroke-width:1;" x1="418.6304" x2="410.64" y1="398.6189" y2="399.01"/><line style="stroke:#181818;stroke-width:1;" x1="556.8396" x2="564.5359" y1="391.8321" y2="385.4472"/><line style="stroke:#181818;stroke-width:1;" x1="556.8396" x2="565.1241" y1="391.8321" y2="397.4328"/><line style="stroke:#181818;stroke-width:1;" x1="556.8396" x2="564.83" y1="391.8321" y2="391.44"/><ellipse cx="550.8468" cy="392.1261" fill="none" rx="4" ry="4" style="stroke:#181818;stroke-width:1;"/><text fill="#000000" font-family="sans-serif" font-size="13" lengthAdjust="spacing" textLength="49.6133" x="482" y="388.5669">used_in</text></g><!--link Auction to Bid--><g class="link" data-entity-1="Auction" data-entity-2="Bid" data-source-line="96" data-uid="lnk18" id="link_Auction_Bid"><path codeLine="96" d="M750.2145,293.641 C798.7045,327.731 840.0525,356.7911 888.7225,390.9911" fill="none" id="Auction-Bid" style="stroke:#181818;stroke-width:1;"/><line style="stroke:#181818;stroke-width:1;" x1="744.6418" x2="749.2428" y1="294.6128" y2="288.0682"/><line style="stroke:#181818;stroke-width:1;" x1="747.096" x2="751.697" y1="296.3381" y2="289.7936"/><line style="stroke:#181818;stroke-width:1;" x1="750.2145" x2="743.67" y1="293.641" y2="289.04"/><line style="stroke:#181818;stroke-width:1;" x1="896.9044" x2="906.8996" y1="396.7405" y2="396.4308"/><line style="stroke:#181818;stroke-width:1;" x1="896.9044" x2="900.0004" y1="396.7405" y2="406.2492"/><line style="stroke:#181818;stroke-width:1;" x1="896.9044" x2="903.45" y1="396.7405" y2="401.34"/><ellipse cx="891.9953" cy="393.2908" fill="none" rx="4" ry="4" style="stroke:#181818;stroke-width:1;"/><text fill="#000000" font-family="sans-serif" font-size="13" lengthAdjust="spacing" textLength="22.9785" x="819" y="327.5669">has</text></g><!--link Auction to Deal--><g class="link" data-entity-1="Auction" data-entity-2="Deal" data-source-line="97" data-uid="lnk19" id="link_Auction_Deal"><path codeLine="97" d="M754.89,235.5 C799.08,235.5 831.21,235.5 876.81,235.5" fill="none" id="Auction-Deal" style="stroke:#181818;stroke-width:1;"/><line style="stroke:#181818;stroke-width:1;" x1="750.89" x2="750.89" y1="239.5" y2="231.5"/><line style="stroke:#181818;stroke-width:1;" x1="753.89" x2="753.89" y1="239.5" y2="231.5"/><line style="stroke:#181818;stroke-width:1;" x1="754.89" x2="746.89" y1="235.5" y2="235.5"/><line style="stroke:#181818;stroke-width:1;" x1="880.81" x2="891.81" y1="235.5" y2="235.5"/><ellipse cx="880.81" cy="235.5" fill="none" rx="4" ry="4" style="stroke:#181818;stroke-width:1;"/><line style="stroke:#181818;stroke-width:1;" x1="887.81" x2="887.81" y1="231.5" y2="239.5"/><text fill="#000000" font-family="sans-serif" font-size="13" lengthAdjust="spacing" textLength="62.188" x="799" y="231.5669">results_in</text></g><!--link Company to Bid--><g class="link" data-entity-1="Company" data-entity-2="Bid" data-source-line="98" data-uid="lnk20" id="link_Company_Bid"><path codeLine="98" d="M78.6122,280.4971 C101.7222,334.6071 149.48,424.97 229,465.5 C451.32,578.84 743.5114,521.9486 885.8814,483.5386" fill="none" id="Company-Bid" style="stroke:#181818;stroke-width:1;"/><line style="stroke:#181818;stroke-width:1;" x1="73.3625" x2="80.7196" y1="278.3896" y2="275.2475"/><line style="stroke:#181818;stroke-width:1;" x1="74.5408" x2="81.8979" y1="281.1485" y2="278.0064"/><line style="stroke:#181818;stroke-width:1;" x1="78.6122" x2="75.47" y1="280.4971" y2="273.14"/><line style="stroke:#181818;stroke-width:1;" x1="895.5362" x2="901.6971" y1="480.9338" y2="473.0571"/><line style="stroke:#181818;stroke-width:1;" x1="895.5362" x2="904.8229" y1="480.9338" y2="484.6429"/><line style="stroke:#181818;stroke-width:1;" x1="895.5362" x2="903.26" y1="480.9338" y2="478.85"/><ellipse cx="889.7433" cy="482.4967" fill="none" rx="4" ry="4" style="stroke:#181818;stroke-width:1;"/><text fill="#000000" font-family="sans-serif" font-size="13" lengthAdjust="spacing" textLength="41.7485" x="486" y="524.5669">places</text></g><!--link Deal to Contract--><g class="link" data-entity-1="Deal" data-entity-2="Contract" data-source-line="100" data-uid="lnk21" id="link_Deal_Contract"><path codeLine="100" d="M1078.4746,191.9233 C1107.9946,178.5233 1115.4839,175.1295 1138.4039,164.7095" fill="none" id="Deal-Contract" style="stroke:#181818;stroke-width:1;"/><line style="stroke:#181818;stroke-width:1;" x1="1076.4857" x2="1073.179" y1="197.219" y2="189.9343"/><line style="stroke:#181818;stroke-width:1;" x1="1079.2174" x2="1075.9107" y1="195.9789" y2="188.6943"/><line style="stroke:#181818;stroke-width:1;" x1="1078.4746" x2="1071.19" y1="191.9233" y2="195.23"/><line style="stroke:#181818;stroke-width:1;" x1="1147.5073" x2="1152.3068" y1="160.5709" y2="151.798"/><line style="stroke:#181818;stroke-width:1;" x1="1147.5073" x2="1157.2732" y1="160.5709" y2="162.722"/><line style="stroke:#181818;stroke-width:1;" x1="1147.5073" x2="1154.79" y1="160.5709" y2="157.26"/><ellipse cx="1142.0453" cy="163.0541" fill="none" rx="4" ry="4" style="stroke:#181818;stroke-width:1;"/><text fill="#000000" font-family="sans-serif" font-size="13" lengthAdjust="spacing" textLength="22.9785" x="1102" y="168.5669">has</text></g><!--link Deal to Logistic--><g class="link" data-entity-1="Deal" data-entity-2="Logistic" data-source-line="101" data-uid="lnk22" id="link_Deal_Logistic"><path codeLine="101" d="M1079.19,235.5 C1108.71,235.5 1116.87,235.5 1139.79,235.5" fill="none" id="Deal-Logistic" style="stroke:#181818;stroke-width:1;"/><line style="stroke:#181818;stroke-width:1;" x1="1075.19" x2="1075.19" y1="239.5" y2="231.5"/><line style="stroke:#181818;stroke-width:1;" x1="1078.19" x2="1078.19" y1="239.5" y2="231.5"/><line style="stroke:#181818;stroke-width:1;" x1="1079.19" x2="1071.19" y1="235.5" y2="235.5"/><line style="stroke:#181818;stroke-width:1;" x1="1143.79" x2="1154.79" y1="235.5" y2="235.5"/><ellipse cx="1143.79" cy="235.5" fill="none" rx="4" ry="4" style="stroke:#181818;stroke-width:1;"/><line style="stroke:#181818;stroke-width:1;" x1="1150.79" x2="1150.79" y1="231.5" y2="239.5"/><text fill="#000000" font-family="sans-serif" font-size="13" lengthAdjust="spacing" textLength="22.9785" x="1102" y="231.5669">has</text></g><!--link Deal to Payment--><g class="link" data-entity-1="Deal" data-entity-2="Payment" data-source-line="102" data-uid="lnk23" id="link_Deal_Payment"><path codeLine="102" d="M1078.4746,279.0867 C1107.9946,292.4867 1118.2127,297.127 1141.1327,307.537" fill="none" id="Deal-Payment" style="stroke:#181818;stroke-width:1;"/><line style="stroke:#181818;stroke-width:1;" x1="1073.179" x2="1076.4857" y1="281.0757" y2="273.791"/><line style="stroke:#181818;stroke-width:1;" x1="1075.9107" x2="1079.2174" y1="282.3157" y2="275.0311"/><line style="stroke:#181818;stroke-width:1;" x1="1078.4746" x2="1071.19" y1="279.0867" y2="275.78"/><line style="stroke:#181818;stroke-width:1;" x1="1144.7746" x2="1154.79" y1="309.1911" y2="313.74"/><ellipse cx="1144.7746" cy="309.1911" fill="none" rx="4" ry="4" style="stroke:#181818;stroke-width:1;"/><line style="stroke:#181818;stroke-width:1;" x1="1152.8022" x2="1149.4939" y1="308.4439" y2="315.7278"/><text fill="#000000" font-family="sans-serif" font-size="13" lengthAdjust="spacing" textLength="22.9785" x="1102" y="286.5669">has</text></g><!--SRC=[bLGxRjmm4Erv2dOfWhs0kjX1AXTkKWiqIQyce4Y1CuAXM3b3pf0hf4cEiRbHHkHgnTsbWRKAYPp7D_FcGpdxJ9A2ZB3lI1g8LXC4BpemLcg8sbaXh2UWINv56-MhaF8Z6Db8yCJhtOvVElI3ybDRsBtgBM-G8lWzxsDmnVx7oUbzfjRzdZlPI0-1RXOon616JQL9ZId9qeIa8hL31Bq4D5P3hrnYNrfMScOOHGdc3q5lioSQiQRwCIkfAt-ngGDb98JlPoNaJBH5v4tRM-g2AS5dm6vBQ0lwASkj1xqr1vO7tjlOFe6f1Vd2mM_feEJiK4SOagHAYUwON_LJQLcrrrVzSqfRqoeg4zpYVRRAlJiWMkUu5XNaQPpEWNNuqAi1kx2e-8PylMfItnwS- -0fggl9AU_37f10ltdWKKqzBw_n3vpjyP67NuVV_tuU_Xp-RaOXrWiwpxjTUCq_WKRQVd1Xmalq8QKONZmAiQmNypoV9h_XIdbIm721hYFQv7baQfgdeykDEo9t4hmGA-5uuYubr2ay1-RStKP6YwCZNAWNSZCppGX7JSUFoAdasV46pLknhw6rp0dv3m00]--></g></svg>